<?xml version="1.0" encoding="UTF-8"?>
<svg id="Layer_1" data-name="Layer 1" xmlns="http://www.w3.org/2000/svg" version="1.1" viewBox="0 0 2470.01 1262.77">
  <defs>
    <style>
      .cls-1 {
        font-size: 40px;
      }

      .cls-1, .cls-2, .cls-3, .cls-4, .cls-5, .cls-6, .cls-7 {
        fill: #231f20;
      }

      .cls-1, .cls-2, .cls-3, .cls-7 {
        font-family: ArialMT, Arial;
      }

      .cls-8, .cls-9, .cls-10, .cls-11, .cls-12, .cls-13, .cls-14, .cls-15, .cls-16, .cls-17, .cls-18, .cls-19 {
        stroke-miterlimit: 10;
      }

      .cls-8, .cls-9, .cls-10, .cls-11, .cls-12, .cls-14, .cls-15, .cls-16, .cls-17, .cls-19 {
        stroke: #000;
      }

      .cls-8, .cls-10, .cls-12, .cls-17, .cls-19 {
        fill: none;
      }

      .cls-8, .cls-10, .cls-16 {
        stroke-width: 3px;
      }

      .cls-8, .cls-17 {
        stroke-dasharray: 0 0 0 0 10 0 0 9.99;
      }

      .cls-2 {
        font-size: 30px;
      }

      .cls-3 {
        font-size: 15px;
      }

      .cls-4, .cls-5 {
        font-family: Arial-BoldMT, Arial;
        font-weight: 700;
      }

      .cls-4, .cls-7 {
        font-size: 20px;
      }

      .cls-9, .cls-11, .cls-12, .cls-14, .cls-15, .cls-17, .cls-19 {
        stroke-width: 2px;
      }

      .cls-9, .cls-16, .cls-20 {
        fill: #fff;
      }

      .cls-10, .cls-19 {
        stroke-dasharray: 0 0 0 0 10 0 0 10;
      }

      .cls-11 {
        fill: #3f8782;
      }

      .cls-13 {
        fill: #327874;
      }

      .cls-13, .cls-18 {
        stroke: #231f20;
        stroke-width: 5px;
      }

      .cls-5 {
        font-size: 35px;
      }

      .cls-14 {
        fill: #408782;
      }

      .cls-21 {
        fill: #000;
      }

      .cls-21, .cls-6, .cls-20 {
        stroke-width: 0px;
      }

      .cls-15 {
        fill: #d7c8e2;
      }

      .cls-18 {
        fill: #d8c8e2;
      }
    </style>
  </defs>
  <line class="cls-9" x1="1506.27" y1="811.06" x2="1506.27" y2="1112.6"/>
  <g>
    <text class="cls-1" transform="translate(2129.65 1167.81)"><tspan x="0" y="0">Input/Output</tspan></text>
    <text class="cls-1" transform="translate(2129.65 1232.12)"><tspan x="0" y="0">Process</tspan></text>
    <rect class="cls-13" x="2058.22" y="1135.03" width="42.23" height="42.23"/>
    <rect class="cls-18" x="2058.22" y="1194.82" width="42.23" height="42.23"/>
  </g>
  <line class="cls-9" x1="218.46" y1="355.41" x2="218.46" y2="461.83"/>
  <g>
    <line class="cls-20" x1="218.46" y1="794.08" x2="218.46" y2="941.61"/>
    <g>
      <line class="cls-12" x1="218.46" y1="794.08" x2="218.46" y2="927.49"/>
      <polygon class="cls-21" points="218.46 941.61 210.33 921.71 218.46 926.44 226.59 921.71 218.46 941.61"/>
    </g>
  </g>
  <g>
    <rect class="cls-11" x="31.59" y="215.1" width="378.42" height="140.55"/>
    <text class="cls-5" transform="translate(129.39 293.81)"><tspan x="0" y="0">Raw signal</tspan></text>
  </g>
  <line class="cls-9" x1="218.46" y1="602.61" x2="218.46" y2="680.33"/>
  <g>
    <rect class="cls-15" x="31.59" y="461.78" width="378.42" height="140.55" rx="41.62" ry="41.62"/>
    <text class="cls-5" transform="translate(123.54 540.48)"><tspan x="0" y="0">Basecalling</tspan></text>
  </g>
  <path class="cls-15" d="M368.4,812.48H73.21c-15.85,0-29.63-8.86-36.66-21.9-3.16-5.87-4.96-12.58-4.96-19.71v-57.32c0-22.98,18.63-41.62,41.62-41.62h295.19c22.98,0,41.62,18.63,41.62,41.62v57.32c0,22.98-18.63,41.62-41.62,41.62Z"/>
  <text class="cls-5" transform="translate(91.85 749.88)"><tspan x="0" y="0">Demultiplexing</tspan></text>
  <g>
    <g>
      <rect class="cls-14" x="31.59" y="943.66" width="378.42" height="140.55"/>
      <text class="cls-4" transform="translate(322.69 1065.74)"><tspan x="0" y="0">MultiQC</tspan></text>
    </g>
    <text class="cls-5" transform="translate(133.26 1022.36)"><tspan x="0" y="0">Raw reads</tspan></text>
  </g>
  <g>
    <path class="cls-9" d="M213.29,1225.42"/>
    <line class="cls-19" x1="215.93" y1="1244.73" x2="585.15" y2="1244.96"/>
    <line class="cls-19" x1="217.03" y1="1245.57" x2="217.37" y2="1082.22"/>
    <line class="cls-19" x1="586.06" y1="1245.08" x2="587.57" y2="127.46"/>
    <line class="cls-19" x1="590.59" y1="127.03" x2="859.95" y2="126.13"/>
    <g>
      <line class="cls-17" x1="859.46" y1="202.14" x2="859.22" y2="124.76"/>
      <polygon class="cls-21" points="859.5 216.26 867.57 196.34 859.46 201.08 851.31 196.39 859.5 216.26"/>
    </g>
  </g>
  <g>
    <rect class="cls-15" x="673.84" y="213.3" width="378.42" height="140.55" rx="41.62" ry="41.62"/>
    <text class="cls-5" transform="translate(779.78 292)"><tspan x="0" y="0">Trimming</tspan></text>
  </g>
  <g>
    <path class="cls-6" d="M900.16,382.21c0-1.03.36-1.9,1.09-2.62s1.6-1.08,2.61-1.08,1.9.36,2.63,1.08,1.09,1.6,1.09,2.62-.36,1.9-1.09,2.63c-.73.73-1.6,1.09-2.63,1.09s-1.89-.36-2.61-1.09c-.73-.73-1.09-1.6-1.09-2.63Z"/>
    <path class="cls-6" d="M918.92,392.72v-21.47h9.52c1.91,0,3.37.19,4.37.58,1,.39,1.79,1.07,2.39,2.04s.89,2.06.89,3.24c0,1.52-.49,2.81-1.48,3.85s-2.51,1.71-4.57,1.99c.75.36,1.32.72,1.71,1.07.83.76,1.62,1.71,2.36,2.86l3.74,5.84h-3.57l-2.84-4.47c-.83-1.29-1.51-2.28-2.05-2.96s-1.02-1.16-1.44-1.44-.86-.46-1.3-.57c-.32-.07-.85-.1-1.58-.1h-3.3v9.54h-2.84ZM921.76,380.73h6.11c1.3,0,2.31-.13,3.05-.4.73-.27,1.29-.7,1.67-1.29.38-.59.57-1.23.57-1.93,0-1.02-.37-1.85-1.11-2.5s-1.9-.98-3.49-.98h-6.8v7.1Z"/>
    <path class="cls-6" d="M950.86,387.71l2.72.34c-.43,1.59-1.23,2.83-2.39,3.71s-2.65,1.32-4.45,1.32c-2.28,0-4.08-.7-5.41-2.1s-2-3.37-2-5.9.67-4.65,2.02-6.09,3.1-2.17,5.24-2.17,3.78.71,5.1,2.12,1.98,3.41,1.98,5.98c0,.16,0,.39-.01.7h-11.6c.1,1.71.58,3.02,1.45,3.93s1.95,1.36,3.25,1.36c.97,0,1.79-.25,2.48-.76s1.23-1.32,1.63-2.43ZM942.2,383.45h8.69c-.12-1.31-.45-2.29-1-2.94-.84-1.02-1.93-1.52-3.27-1.52-1.21,0-2.23.41-3.05,1.22s-1.28,1.89-1.37,3.25Z"/>
    <path class="cls-6" d="M967.04,390.81c-.98.83-1.92,1.42-2.82,1.76s-1.87.51-2.91.51c-1.71,0-3.02-.42-3.94-1.25-.92-.84-1.38-1.9-1.38-3.2,0-.76.17-1.46.52-2.09.35-.63.8-1.13,1.36-1.52s1.19-.67,1.9-.86c.52-.14,1.3-.27,2.34-.4,2.13-.25,3.7-.56,4.7-.91,0-.36.01-.59.01-.69,0-1.07-.25-1.83-.75-2.27-.67-.6-1.67-.89-3-.89-1.24,0-2.16.22-2.75.65-.59.44-1.03,1.2-1.31,2.31l-2.58-.35c.23-1.1.62-1.99,1.16-2.67s1.31-1.2,2.33-1.57c1.02-.37,2.19-.55,3.53-.55s2.41.16,3.24.47,1.44.71,1.83,1.18.66,1.07.82,1.79c.09.45.13,1.26.13,2.43v3.52c0,2.45.06,4,.17,4.65s.33,1.27.67,1.87h-2.75c-.27-.55-.45-1.19-.53-1.92ZM966.82,384.92c-.96.39-2.39.72-4.31,1-1.08.16-1.85.33-2.3.53s-.8.48-1.04.86c-.24.38-.37.79-.37,1.25,0,.7.27,1.29.8,1.76s1.31.7,2.34.7,1.92-.22,2.71-.67c.79-.44,1.37-1.05,1.74-1.82.28-.6.42-1.47.42-2.64v-.97Z"/>
    <path class="cls-6" d="M983.67,392.72v-1.96c-.99,1.54-2.44,2.31-4.35,2.31-1.24,0-2.38-.34-3.42-1.03s-1.85-1.64-2.42-2.86-.86-2.63-.86-4.23.26-2.96.78-4.23c.52-1.26,1.29-2.23,2.33-2.91s2.19-1.01,3.47-1.01c.94,0,1.77.2,2.5.59.73.39,1.33.91,1.79,1.54v-7.71h2.62v21.47h-2.45ZM975.33,384.96c0,1.99.42,3.48,1.26,4.47s1.83,1.48,2.97,1.48,2.13-.47,2.94-1.41c.81-.94,1.21-2.38,1.21-4.31,0-2.13-.41-3.69-1.23-4.69s-1.83-1.49-3.03-1.49-2.15.48-2.94,1.44-1.18,2.47-1.18,4.53Z"/>
    <path class="cls-6" d="M1008.51,398.69v-7.62c-.41.58-.98,1.05-1.72,1.44s-1.52.57-2.35.57c-1.85,0-3.44-.74-4.77-2.21s-2-3.5-2-6.06c0-1.56.27-2.96.81-4.2s1.33-2.18,2.36-2.82c1.03-.64,2.16-.96,3.39-.96,1.92,0,3.44.81,4.54,2.43v-2.08h2.37v21.52h-2.64ZM1000.38,384.9c0,2,.42,3.5,1.26,4.5.84,1,1.85,1.5,3.02,1.5s2.09-.48,2.9-1.43c.81-.95,1.22-2.4,1.22-4.34,0-2.07-.43-3.63-1.28-4.67s-1.86-1.57-3.01-1.57-2.11.49-2.91,1.46c-.8.97-1.19,2.49-1.19,4.55Z"/>
    <path class="cls-6" d="M1025.47,392.72v-2.29c-1.21,1.76-2.86,2.64-4.94,2.64-.92,0-1.77-.18-2.57-.53s-1.39-.79-1.77-1.33c-.39-.53-.66-1.18-.81-1.96-.11-.52-.16-1.34-.16-2.46v-9.64h2.64v8.63c0,1.38.05,2.3.16,2.78.17.69.52,1.24,1.05,1.63.54.39,1.2.59,1.99.59s1.53-.2,2.23-.61c.69-.4,1.18-.96,1.47-1.65s.43-1.71.43-3.04v-8.33h2.64v15.56h-2.36Z"/>
    <path class="cls-6" d="M1042.12,390.81c-.98.83-1.92,1.42-2.82,1.76s-1.87.51-2.91.51c-1.71,0-3.02-.42-3.94-1.25-.92-.84-1.38-1.9-1.38-3.2,0-.76.17-1.46.52-2.09.35-.63.8-1.13,1.36-1.52s1.19-.67,1.9-.86c.52-.14,1.3-.27,2.34-.4,2.13-.25,3.7-.56,4.7-.91,0-.36.01-.59.01-.69,0-1.07-.25-1.83-.75-2.27-.67-.6-1.67-.89-3-.89-1.24,0-2.16.22-2.75.65-.59.44-1.03,1.2-1.31,2.31l-2.58-.35c.23-1.1.62-1.99,1.16-2.67s1.31-1.2,2.33-1.57c1.02-.37,2.19-.55,3.53-.55s2.41.16,3.24.47,1.44.71,1.83,1.18.66,1.07.82,1.79c.09.45.13,1.26.13,2.43v3.52c0,2.45.06,4,.17,4.65s.33,1.27.67,1.87h-2.75c-.27-.55-.45-1.19-.53-1.92ZM1041.9,384.92c-.96.39-2.39.72-4.31,1-1.08.16-1.85.33-2.3.53s-.8.48-1.04.86c-.24.38-.37.79-.37,1.25,0,.7.27,1.29.8,1.76s1.31.7,2.34.7,1.92-.22,2.71-.67c.79-.44,1.37-1.05,1.74-1.82.28-.6.42-1.47.42-2.64v-.97Z"/>
    <path class="cls-6" d="M1048.59,392.72v-21.47h2.64v21.47h-2.64Z"/>
    <path class="cls-6" d="M1055.33,374.28v-3.03h2.64v3.03h-2.64ZM1055.33,392.72v-15.56h2.64v15.56h-2.64Z"/>
    <path class="cls-6" d="M1067.74,390.37l.38,2.33c-.74.16-1.41.23-1.99.23-.96,0-1.7-.15-2.23-.45s-.9-.7-1.11-1.19c-.21-.49-.32-1.53-.32-3.11v-8.95h-1.93v-2.05h1.93v-3.85l2.62-1.58v5.43h2.65v2.05h-2.65v9.1c0,.75.05,1.24.14,1.45s.24.39.45.51.51.19.9.19c.29,0,.68-.03,1.16-.1Z"/>
    <path class="cls-6" d="M1070.2,398.72l-.29-2.48c.58.16,1.08.23,1.51.23.59,0,1.05-.1,1.41-.29s.64-.47.86-.82c.17-.26.43-.92.81-1.96.05-.15.13-.36.23-.64l-5.9-15.59h2.84l3.24,9.01c.42,1.14.8,2.34,1.13,3.6.3-1.21.66-2.39,1.08-3.54l3.33-9.07h2.64l-5.92,15.82c-.63,1.71-1.13,2.89-1.48,3.53-.47.87-1.01,1.51-1.61,1.91s-1.33.61-2.17.61c-.51,0-1.07-.11-1.7-.32Z"/>
    <path class="cls-6" d="M1107.53,383.33l-14.22,6.08v-2.62l11.26-4.67-11.26-4.63v-2.62l14.22,6.01v2.46Z"/>
    <path class="cls-6" d="M1118.95,374.06v-2.53h13.9v2.05c-1.37,1.46-2.72,3.39-4.06,5.8s-2.38,4.89-3.11,7.44c-.53,1.8-.86,3.76-1.01,5.9h-2.71c.03-1.69.36-3.73,1-6.12s1.55-4.7,2.73-6.92c1.19-2.22,2.45-4.09,3.79-5.62h-10.52Z"/>
    <path class="cls-6" d="M1144.52,398.69v-21.52h2.4v2.02c.57-.79,1.21-1.38,1.92-1.78.71-.4,1.58-.59,2.59-.59,1.33,0,2.5.34,3.52,1.03s1.78,1.65,2.3,2.89c.52,1.25.78,2.61.78,4.09,0,1.59-.29,3.02-.86,4.3-.57,1.27-1.4,2.25-2.49,2.93-1.09.68-2.23,1.02-3.44,1.02-.88,0-1.67-.19-2.37-.56s-1.27-.84-1.72-1.41v7.57h-2.64ZM1146.91,385.03c0,2,.41,3.48,1.22,4.44s1.79,1.44,2.94,1.44,2.18-.5,3.01-1.49,1.25-2.53,1.25-4.61-.41-3.47-1.22-4.45-1.79-1.48-2.92-1.48-2.12.53-2.98,1.58-1.3,2.58-1.3,4.58Z"/>
    <path class="cls-6" d="M1161.21,392.72v-21.47h2.64v7.71c1.23-1.43,2.78-2.14,4.66-2.14,1.15,0,2.15.23,3,.68.85.45,1.46,1.08,1.82,1.88s.55,1.96.55,3.49v9.86h-2.64v-9.86c0-1.32-.29-2.28-.86-2.88-.57-.6-1.38-.9-2.42-.9-.78,0-1.52.2-2.2.61s-1.18.95-1.47,1.65-.44,1.65-.44,2.87v8.51h-2.64Z"/>
    <path class="cls-6" d="M1177.86,392.72v-15.56h2.37v2.36c.61-1.1,1.16-1.83,1.68-2.18s1.08-.53,1.69-.53c.89,0,1.79.28,2.71.85l-.91,2.45c-.64-.38-1.29-.57-1.93-.57-.58,0-1.09.17-1.55.52-.46.35-.79.83-.98,1.44-.29.94-.44,1.96-.44,3.08v8.14h-2.64Z"/>
    <path class="cls-6" d="M1198.53,387.71l2.72.34c-.43,1.59-1.23,2.83-2.39,3.71s-2.65,1.32-4.45,1.32c-2.28,0-4.08-.7-5.41-2.1s-2-3.37-2-5.9.67-4.65,2.02-6.09,3.1-2.17,5.24-2.17,3.78.71,5.1,2.12,1.98,3.41,1.98,5.98c0,.16,0,.39-.01.7h-11.6c.1,1.71.58,3.02,1.45,3.93s1.95,1.36,3.25,1.36c.97,0,1.79-.25,2.48-.76s1.23-1.32,1.63-2.43ZM1189.87,383.45h8.69c-.12-1.31-.45-2.29-1-2.94-.84-1.02-1.93-1.52-3.27-1.52-1.21,0-2.23.41-3.05,1.22s-1.28,1.89-1.37,3.25Z"/>
    <path class="cls-6" d="M1214.66,392.72v-1.96c-.99,1.54-2.44,2.31-4.35,2.31-1.24,0-2.38-.34-3.42-1.03s-1.85-1.64-2.42-2.86-.86-2.63-.86-4.23.26-2.96.78-4.23c.52-1.26,1.29-2.23,2.33-2.91s2.19-1.01,3.47-1.01c.94,0,1.77.2,2.5.59.73.39,1.33.91,1.79,1.54v-7.71h2.62v21.47h-2.45ZM1206.32,384.96c0,1.99.42,3.48,1.26,4.47s1.83,1.48,2.97,1.48,2.13-.47,2.94-1.41c.81-.94,1.21-2.38,1.21-4.31,0-2.13-.41-3.69-1.23-4.69s-1.83-1.49-3.03-1.49-2.15.48-2.94,1.44-1.18,2.47-1.18,4.53Z"/>
    <path class="cls-6" d="M900.16,418.21c0-1.03.36-1.9,1.09-2.62s1.6-1.08,2.61-1.08,1.9.36,2.63,1.08,1.09,1.6,1.09,2.62-.36,1.9-1.09,2.63c-.73.73-1.6,1.09-2.63,1.09s-1.89-.36-2.61-1.09c-.73-.73-1.09-1.6-1.09-2.63Z"/>
    <path class="cls-6" d="M918.92,428.72v-21.47h9.52c1.91,0,3.37.19,4.37.58,1,.39,1.79,1.07,2.39,2.04s.89,2.06.89,3.24c0,1.52-.49,2.81-1.48,3.85s-2.51,1.71-4.57,1.99c.75.36,1.32.72,1.71,1.07.83.76,1.62,1.71,2.36,2.86l3.74,5.84h-3.57l-2.84-4.47c-.83-1.29-1.51-2.28-2.05-2.96s-1.02-1.16-1.44-1.44-.86-.46-1.3-.57c-.32-.07-.85-.1-1.58-.1h-3.3v9.54h-2.84ZM921.76,416.73h6.11c1.3,0,2.31-.13,3.05-.4.73-.27,1.29-.7,1.67-1.29.38-.59.57-1.23.57-1.93,0-1.02-.37-1.85-1.11-2.5s-1.9-.98-3.49-.98h-6.8v7.1Z"/>
    <path class="cls-6" d="M950.86,423.71l2.72.34c-.43,1.59-1.23,2.83-2.39,3.71s-2.65,1.32-4.45,1.32c-2.28,0-4.08-.7-5.41-2.1s-2-3.37-2-5.9.67-4.65,2.02-6.09,3.1-2.17,5.24-2.17,3.78.71,5.1,2.12,1.98,3.41,1.98,5.98c0,.16,0,.39-.01.7h-11.6c.1,1.71.58,3.02,1.45,3.93s1.95,1.36,3.25,1.36c.97,0,1.79-.25,2.48-.76s1.23-1.32,1.63-2.43ZM942.2,419.45h8.69c-.12-1.31-.45-2.29-1-2.94-.84-1.02-1.93-1.52-3.27-1.52-1.21,0-2.23.41-3.05,1.22s-1.28,1.89-1.37,3.25Z"/>
    <path class="cls-6" d="M967.04,426.81c-.98.83-1.92,1.42-2.82,1.76s-1.87.51-2.91.51c-1.71,0-3.02-.42-3.94-1.25-.92-.84-1.38-1.9-1.38-3.2,0-.76.17-1.46.52-2.09.35-.63.8-1.13,1.36-1.52s1.19-.67,1.9-.86c.52-.14,1.3-.27,2.34-.4,2.13-.25,3.7-.56,4.7-.91,0-.36.01-.59.01-.69,0-1.07-.25-1.83-.75-2.27-.67-.6-1.67-.89-3-.89-1.24,0-2.16.22-2.75.65-.59.44-1.03,1.2-1.31,2.31l-2.58-.35c.23-1.1.62-1.99,1.16-2.67s1.31-1.2,2.33-1.57c1.02-.37,2.19-.55,3.53-.55s2.41.16,3.24.47,1.44.71,1.83,1.18.66,1.07.82,1.79c.09.45.13,1.26.13,2.43v3.52c0,2.45.06,4,.17,4.65s.33,1.27.67,1.87h-2.75c-.27-.55-.45-1.19-.53-1.92ZM966.82,420.92c-.96.39-2.39.72-4.31,1-1.08.16-1.85.33-2.3.53s-.8.48-1.04.86c-.24.38-.37.79-.37,1.25,0,.7.27,1.29.8,1.76s1.31.7,2.34.7,1.92-.22,2.71-.67c.79-.44,1.37-1.05,1.74-1.82.28-.6.42-1.47.42-2.64v-.97Z"/>
    <path class="cls-6" d="M983.67,428.72v-1.96c-.99,1.54-2.44,2.31-4.35,2.31-1.24,0-2.38-.34-3.42-1.03s-1.85-1.64-2.42-2.86-.86-2.63-.86-4.23.26-2.96.78-4.23c.52-1.26,1.29-2.23,2.33-2.91s2.19-1.01,3.47-1.01c.94,0,1.77.2,2.5.59.73.39,1.33.91,1.79,1.54v-7.71h2.62v21.47h-2.45ZM975.33,420.96c0,1.99.42,3.48,1.26,4.47s1.83,1.48,2.97,1.48,2.13-.47,2.94-1.41c.81-.94,1.21-2.38,1.21-4.31,0-2.13-.41-3.69-1.23-4.69s-1.83-1.49-3.03-1.49-2.15.48-2.94,1.44-1.18,2.47-1.18,4.53Z"/>
    <path class="cls-6" d="M1008.75,426.81c-.98.83-1.92,1.42-2.82,1.76s-1.87.51-2.91.51c-1.71,0-3.02-.42-3.94-1.25-.92-.84-1.38-1.9-1.38-3.2,0-.76.17-1.46.52-2.09.35-.63.8-1.13,1.36-1.52s1.19-.67,1.9-.86c.52-.14,1.3-.27,2.34-.4,2.13-.25,3.7-.56,4.7-.91,0-.36.01-.59.01-.69,0-1.07-.25-1.83-.75-2.27-.67-.6-1.67-.89-3-.89-1.24,0-2.16.22-2.75.65-.59.44-1.03,1.2-1.31,2.31l-2.58-.35c.23-1.1.62-1.99,1.16-2.67s1.31-1.2,2.33-1.57c1.02-.37,2.19-.55,3.53-.55s2.41.16,3.24.47,1.44.71,1.83,1.18.66,1.07.82,1.79c.09.45.13,1.26.13,2.43v3.52c0,2.45.06,4,.17,4.65s.33,1.27.67,1.87h-2.75c-.27-.55-.45-1.19-.53-1.92ZM1008.53,420.92c-.96.39-2.39.72-4.31,1-1.08.16-1.85.33-2.3.53s-.8.48-1.04.86c-.24.38-.37.79-.37,1.25,0,.7.27,1.29.8,1.76s1.31.7,2.34.7,1.92-.22,2.71-.67c.79-.44,1.37-1.05,1.74-1.82.28-.6.42-1.47.42-2.64v-.97Z"/>
    <path class="cls-6" d="M1025.37,428.72v-1.96c-.99,1.54-2.44,2.31-4.35,2.31-1.24,0-2.38-.34-3.42-1.03s-1.85-1.64-2.42-2.86-.86-2.63-.86-4.23.26-2.96.78-4.23c.52-1.26,1.29-2.23,2.33-2.91s2.19-1.01,3.47-1.01c.94,0,1.77.2,2.5.59.73.39,1.33.91,1.79,1.54v-7.71h2.62v21.47h-2.45ZM1017.04,420.96c0,1.99.42,3.48,1.26,4.47s1.83,1.48,2.97,1.48,2.13-.47,2.94-1.41c.81-.94,1.21-2.38,1.21-4.31,0-2.13-.41-3.69-1.23-4.69s-1.83-1.49-3.03-1.49-2.15.48-2.94,1.44-1.18,2.47-1.18,4.53Z"/>
    <path class="cls-6" d="M1042.12,426.81c-.98.83-1.92,1.42-2.82,1.76s-1.87.51-2.91.51c-1.71,0-3.02-.42-3.94-1.25-.92-.84-1.38-1.9-1.38-3.2,0-.76.17-1.46.52-2.09.35-.63.8-1.13,1.36-1.52s1.19-.67,1.9-.86c.52-.14,1.3-.27,2.34-.4,2.13-.25,3.7-.56,4.7-.91,0-.36.01-.59.01-.69,0-1.07-.25-1.83-.75-2.27-.67-.6-1.67-.89-3-.89-1.24,0-2.16.22-2.75.65-.59.44-1.03,1.2-1.31,2.31l-2.58-.35c.23-1.1.62-1.99,1.16-2.67s1.31-1.2,2.33-1.57c1.02-.37,2.19-.55,3.53-.55s2.41.16,3.24.47,1.44.71,1.83,1.18.66,1.07.82,1.79c.09.45.13,1.26.13,2.43v3.52c0,2.45.06,4,.17,4.65s.33,1.27.67,1.87h-2.75c-.27-.55-.45-1.19-.53-1.92ZM1041.9,420.92c-.96.39-2.39.72-4.31,1-1.08.16-1.85.33-2.3.53s-.8.48-1.04.86c-.24.38-.37.79-.37,1.25,0,.7.27,1.29.8,1.76s1.31.7,2.34.7,1.92-.22,2.71-.67c.79-.44,1.37-1.05,1.74-1.82.28-.6.42-1.47.42-2.64v-.97Z"/>
    <path class="cls-6" d="M1048.65,434.69v-21.52h2.4v2.02c.57-.79,1.21-1.38,1.92-1.78.71-.4,1.58-.59,2.59-.59,1.33,0,2.5.34,3.52,1.03s1.78,1.65,2.3,2.89c.52,1.25.78,2.61.78,4.09,0,1.59-.29,3.02-.86,4.3-.57,1.27-1.4,2.25-2.49,2.93-1.09.68-2.23,1.02-3.44,1.02-.88,0-1.67-.19-2.37-.56s-1.27-.84-1.72-1.41v7.57h-2.64ZM1051.04,421.03c0,2,.41,3.48,1.22,4.44s1.79,1.44,2.94,1.44,2.18-.5,3.01-1.49,1.25-2.53,1.25-4.61-.41-3.47-1.22-4.45-1.79-1.48-2.92-1.48-2.12.53-2.98,1.58-1.3,2.58-1.3,4.58Z"/>
    <path class="cls-6" d="M1071.09,426.37l.38,2.33c-.74.16-1.41.23-1.99.23-.96,0-1.7-.15-2.23-.45s-.9-.7-1.11-1.19c-.21-.49-.32-1.53-.32-3.11v-8.95h-1.93v-2.05h1.93v-3.85l2.62-1.58v5.43h2.65v2.05h-2.65v9.1c0,.75.05,1.24.14,1.45s.24.39.45.51.51.19.9.19c.29,0,.68-.03,1.16-.1Z"/>
    <path class="cls-6" d="M1084.32,423.71l2.72.34c-.43,1.59-1.23,2.83-2.39,3.71s-2.65,1.32-4.45,1.32c-2.28,0-4.08-.7-5.41-2.1s-2-3.37-2-5.9.67-4.65,2.02-6.09,3.1-2.17,5.24-2.17,3.78.71,5.1,2.12,1.98,3.41,1.98,5.98c0,.16,0,.39-.01.7h-11.6c.1,1.71.58,3.02,1.45,3.93s1.95,1.36,3.25,1.36c.97,0,1.79-.25,2.48-.76s1.23-1.32,1.63-2.43ZM1075.66,419.45h8.69c-.12-1.31-.45-2.29-1-2.94-.84-1.02-1.93-1.52-3.27-1.52-1.21,0-2.23.41-3.05,1.22s-1.28,1.89-1.37,3.25Z"/>
    <path class="cls-6" d="M1090.32,428.72v-15.56h2.37v2.36c.61-1.1,1.16-1.83,1.68-2.18s1.08-.53,1.69-.53c.89,0,1.79.28,2.71.85l-.91,2.45c-.64-.38-1.29-.57-1.93-.57-.58,0-1.09.17-1.55.52-.46.35-.79.83-.98,1.44-.29.94-.44,1.96-.44,3.08v8.14h-2.64Z"/>
    <path class="cls-6" d="M1108.65,428.72v-15.56h2.37v2.36c.61-1.1,1.16-1.83,1.68-2.18s1.08-.53,1.69-.53c.89,0,1.79.28,2.71.85l-.91,2.45c-.64-.38-1.29-.57-1.93-.57-.58,0-1.09.17-1.55.52-.46.35-.79.83-.98,1.44-.29.94-.44,1.96-.44,3.08v8.14h-2.64Z"/>
    <path class="cls-6" d="M1129.32,423.71l2.72.34c-.43,1.59-1.23,2.83-2.39,3.71s-2.65,1.32-4.45,1.32c-2.28,0-4.08-.7-5.41-2.1s-2-3.37-2-5.9.67-4.65,2.02-6.09,3.1-2.17,5.24-2.17,3.78.71,5.1,2.12,1.98,3.41,1.98,5.98c0,.16,0,.39-.01.7h-11.6c.1,1.71.58,3.02,1.45,3.93s1.95,1.36,3.25,1.36c.97,0,1.79-.25,2.48-.76s1.23-1.32,1.63-2.43ZM1120.66,419.45h8.69c-.12-1.31-.45-2.29-1-2.94-.84-1.02-1.93-1.52-3.27-1.52-1.21,0-2.23.41-3.05,1.22s-1.28,1.89-1.37,3.25Z"/>
    <path class="cls-6" d="M1135.35,428.72v-15.56h2.36v2.18c.49-.76,1.14-1.37,1.95-1.84.81-.46,1.73-.7,2.77-.7,1.15,0,2.1.24,2.83.72s1.26,1.15,1.56,2.01c1.23-1.82,2.83-2.72,4.8-2.72,1.54,0,2.73.43,3.56,1.28.83.86,1.25,2.17,1.25,3.95v10.68h-2.62v-9.8c0-1.05-.09-1.81-.26-2.28-.17-.46-.48-.84-.93-1.12s-.98-.42-1.58-.42c-1.09,0-2,.36-2.72,1.09s-1.08,1.89-1.08,3.49v9.04h-2.64v-10.11c0-1.17-.21-2.05-.64-2.64s-1.13-.88-2.11-.88c-.74,0-1.43.2-2.06.59s-1.09.96-1.37,1.71-.42,1.84-.42,3.25v8.07h-2.64Z"/>
    <path class="cls-6" d="M1159.36,420.95c0-2.88.8-5.01,2.4-6.4,1.34-1.15,2.97-1.73,4.89-1.73,2.14,0,3.89.7,5.24,2.1,1.36,1.4,2.04,3.34,2.04,5.81,0,2-.3,3.58-.9,4.72s-1.47,2.04-2.62,2.67-2.4.95-3.76.95c-2.18,0-3.94-.7-5.28-2.09s-2.01-3.41-2.01-6.04ZM1162.07,420.95c0,1.99.43,3.48,1.3,4.48s1.96,1.49,3.28,1.49,2.4-.5,3.27-1.49,1.3-2.51,1.3-4.56c0-1.92-.44-3.38-1.31-4.37s-1.96-1.49-3.26-1.49-2.41.49-3.28,1.48-1.3,2.48-1.3,4.47Z"/>
    <path class="cls-6" d="M1181.35,428.72l-5.92-15.56h2.78l3.34,9.32c.36,1.01.69,2.05,1,3.13.23-.82.56-1.81.98-2.96l3.46-9.49h2.71l-5.89,15.56h-2.46Z"/>
    <path class="cls-6" d="M1202.18,426.81c-.98.83-1.92,1.42-2.82,1.76s-1.87.51-2.91.51c-1.71,0-3.02-.42-3.94-1.25-.92-.84-1.38-1.9-1.38-3.2,0-.76.17-1.46.52-2.09.35-.63.8-1.13,1.36-1.52s1.19-.67,1.9-.86c.52-.14,1.3-.27,2.34-.4,2.13-.25,3.7-.56,4.7-.91,0-.36.01-.59.01-.69,0-1.07-.25-1.83-.75-2.27-.67-.6-1.67-.89-3-.89-1.24,0-2.16.22-2.75.65-.59.44-1.03,1.2-1.31,2.31l-2.58-.35c.23-1.1.62-1.99,1.16-2.67s1.31-1.2,2.33-1.57c1.02-.37,2.19-.55,3.53-.55s2.41.16,3.24.47,1.44.71,1.83,1.18.66,1.07.82,1.79c.09.45.13,1.26.13,2.43v3.52c0,2.45.06,4,.17,4.65s.33,1.27.67,1.87h-2.75c-.27-.55-.45-1.19-.53-1.92ZM1201.96,420.92c-.96.39-2.39.72-4.31,1-1.08.16-1.85.33-2.3.53s-.8.48-1.04.86c-.24.38-.37.79-.37,1.25,0,.7.27,1.29.8,1.76s1.31.7,2.34.7,1.92-.22,2.71-.67c.79-.44,1.37-1.05,1.74-1.82.28-.6.42-1.47.42-2.64v-.97Z"/>
    <path class="cls-6" d="M1208.65,428.72v-21.47h2.64v21.47h-2.64Z"/>
    <path class="cls-6" d="M900.16,454.21c0-1.03.36-1.9,1.09-2.62s1.6-1.08,2.61-1.08,1.9.36,2.63,1.08,1.09,1.6,1.09,2.62-.36,1.9-1.09,2.63c-.73.73-1.6,1.09-2.63,1.09s-1.89-.36-2.61-1.09c-.73-.73-1.09-1.6-1.09-2.63Z"/>
    <path class="cls-6" d="M918.92,464.72v-21.47h9.52c1.91,0,3.37.19,4.37.58,1,.39,1.79,1.07,2.39,2.04s.89,2.06.89,3.24c0,1.52-.49,2.81-1.48,3.85s-2.51,1.71-4.57,1.99c.75.36,1.32.72,1.71,1.07.83.76,1.62,1.71,2.36,2.86l3.74,5.84h-3.57l-2.84-4.47c-.83-1.29-1.51-2.28-2.05-2.96s-1.02-1.16-1.44-1.44-.86-.46-1.3-.57c-.32-.07-.85-.1-1.58-.1h-3.3v9.54h-2.84ZM921.76,452.73h6.11c1.3,0,2.31-.13,3.05-.4.73-.27,1.29-.7,1.67-1.29.38-.59.57-1.23.57-1.93,0-1.02-.37-1.85-1.11-2.5s-1.9-.98-3.49-.98h-6.8v7.1Z"/>
    <path class="cls-6" d="M950.86,459.71l2.72.34c-.43,1.59-1.23,2.83-2.39,3.71s-2.65,1.32-4.45,1.32c-2.28,0-4.08-.7-5.41-2.1s-2-3.37-2-5.9.67-4.65,2.02-6.09,3.1-2.17,5.24-2.17,3.78.71,5.1,2.12,1.98,3.41,1.98,5.98c0,.16,0,.39-.01.7h-11.6c.1,1.71.58,3.02,1.45,3.93s1.95,1.36,3.25,1.36c.97,0,1.79-.25,2.48-.76s1.23-1.32,1.63-2.43ZM942.2,455.45h8.69c-.12-1.31-.45-2.29-1-2.94-.84-1.02-1.93-1.52-3.27-1.52-1.21,0-2.23.41-3.05,1.22s-1.28,1.89-1.37,3.25Z"/>
    <path class="cls-6" d="M967.04,462.81c-.98.83-1.92,1.42-2.82,1.76s-1.87.51-2.91.51c-1.71,0-3.02-.42-3.94-1.25-.92-.84-1.38-1.9-1.38-3.2,0-.76.17-1.46.52-2.09.35-.63.8-1.13,1.36-1.52s1.19-.67,1.9-.86c.52-.14,1.3-.27,2.34-.4,2.13-.25,3.7-.56,4.7-.91,0-.36.01-.59.01-.69,0-1.07-.25-1.83-.75-2.27-.67-.6-1.67-.89-3-.89-1.24,0-2.16.22-2.75.65-.59.44-1.03,1.2-1.31,2.31l-2.58-.35c.23-1.1.62-1.99,1.16-2.67s1.31-1.2,2.33-1.57c1.02-.37,2.19-.55,3.53-.55s2.41.16,3.24.47,1.44.71,1.83,1.18.66,1.07.82,1.79c.09.45.13,1.26.13,2.43v3.52c0,2.45.06,4,.17,4.65s.33,1.27.67,1.87h-2.75c-.27-.55-.45-1.19-.53-1.92ZM966.82,456.92c-.96.39-2.39.72-4.31,1-1.08.16-1.85.33-2.3.53s-.8.48-1.04.86c-.24.38-.37.79-.37,1.25,0,.7.27,1.29.8,1.76s1.31.7,2.34.7,1.92-.22,2.71-.67c.79-.44,1.37-1.05,1.74-1.82.28-.6.42-1.47.42-2.64v-.97Z"/>
    <path class="cls-6" d="M983.67,464.72v-1.96c-.99,1.54-2.44,2.31-4.35,2.31-1.24,0-2.38-.34-3.42-1.03s-1.85-1.64-2.42-2.86-.86-2.63-.86-4.23.26-2.96.78-4.23c.52-1.26,1.29-2.23,2.33-2.91s2.19-1.01,3.47-1.01c.94,0,1.77.2,2.5.59.73.39,1.33.91,1.79,1.54v-7.71h2.62v21.47h-2.45ZM975.33,456.96c0,1.99.42,3.48,1.26,4.47s1.83,1.48,2.97,1.48,2.13-.47,2.94-1.41c.81-.94,1.21-2.38,1.21-4.31,0-2.13-.41-3.69-1.23-4.69s-1.83-1.49-3.03-1.49-2.15.48-2.94,1.44-1.18,2.47-1.18,4.53Z"/>
    <path class="cls-6" d="M998.54,464.72v-21.47h2.64v21.47h-2.64Z"/>
    <path class="cls-6" d="M1015.91,459.71l2.72.34c-.43,1.59-1.23,2.83-2.39,3.71s-2.65,1.32-4.45,1.32c-2.28,0-4.08-.7-5.41-2.1s-2-3.37-2-5.9.67-4.65,2.02-6.09,3.1-2.17,5.24-2.17,3.78.71,5.1,2.12,1.98,3.41,1.98,5.98c0,.16,0,.39-.01.7h-11.6c.1,1.71.58,3.02,1.45,3.93s1.95,1.36,3.25,1.36c.97,0,1.79-.25,2.48-.76s1.23-1.32,1.63-2.43ZM1007.25,455.45h8.69c-.12-1.31-.45-2.29-1-2.94-.84-1.02-1.93-1.52-3.27-1.52-1.21,0-2.23.41-3.05,1.22s-1.28,1.89-1.37,3.25Z"/>
    <path class="cls-6" d="M1021.94,464.72v-15.56h2.37v2.21c1.14-1.71,2.79-2.56,4.95-2.56.94,0,1.8.17,2.59.51.79.34,1.37.78,1.77,1.33s.66,1.2.82,1.95c.1.49.15,1.34.15,2.56v9.57h-2.64v-9.46c0-1.07-.1-1.88-.31-2.41-.21-.53-.57-.96-1.09-1.27s-1.14-.48-1.84-.48c-1.12,0-2.09.36-2.91,1.07s-1.22,2.07-1.22,4.06v8.5h-2.64Z"/>
    <path class="cls-6" d="M1038.15,466.01l2.56.38c.11.79.41,1.37.89,1.73.65.49,1.55.73,2.68.73,1.22,0,2.16-.24,2.83-.73s1.11-1.17,1.35-2.05c.14-.54.2-1.67.19-3.38-1.15,1.36-2.59,2.04-4.31,2.04-2.14,0-3.79-.77-4.97-2.31s-1.76-3.39-1.76-5.55c0-1.48.27-2.85.81-4.11s1.32-2.22,2.34-2.91,2.22-1.03,3.6-1.03c1.84,0,3.35.74,4.54,2.23v-1.88h2.43v13.45c0,2.42-.25,4.14-.74,5.15-.49,1.01-1.27,1.81-2.34,2.4s-2.39.88-3.95.88c-1.86,0-3.35-.42-4.5-1.25-1.14-.83-1.69-2.09-1.66-3.77ZM1040.33,456.67c0,2.04.41,3.53,1.22,4.47s1.83,1.41,3.05,1.41,2.23-.47,3.05-1.4c.82-.93,1.23-2.39,1.23-4.39s-.42-3.34-1.27-4.31-1.86-1.45-3.05-1.45-2.17.48-2.99,1.43c-.82.95-1.23,2.37-1.23,4.24Z"/>
    <path class="cls-6" d="M1061.07,462.37l.38,2.33c-.74.16-1.41.23-1.99.23-.96,0-1.7-.15-2.23-.45s-.9-.7-1.11-1.19c-.21-.49-.32-1.53-.32-3.11v-8.95h-1.93v-2.05h1.93v-3.85l2.62-1.58v5.43h2.65v2.05h-2.65v9.1c0,.75.05,1.24.14,1.45s.24.39.45.51.51.19.9.19c.29,0,.68-.03,1.16-.1Z"/>
    <path class="cls-6" d="M1063.65,464.72v-21.47h2.64v7.71c1.23-1.43,2.78-2.14,4.66-2.14,1.15,0,2.15.23,3,.68.85.45,1.46,1.08,1.82,1.88s.55,1.96.55,3.49v9.86h-2.64v-9.86c0-1.32-.29-2.28-.86-2.88-.57-.6-1.38-.9-2.42-.9-.78,0-1.52.2-2.2.61s-1.18.95-1.47,1.65-.44,1.65-.44,2.87v8.51h-2.64Z"/>
    <path class="cls-6" d="M1102.55,455.33l-14.22,6.08v-2.62l11.26-4.67-11.26-4.63v-2.62l14.22,6.01v2.46Z"/>
    <path class="cls-6" d="M1127.65,462.19v2.53h-14.19c-.02-.63.08-1.25.31-1.83.36-.97.94-1.92,1.74-2.86s1.95-2.02,3.45-3.25c2.33-1.91,3.91-3.43,4.73-4.55.82-1.12,1.23-2.17,1.23-3.17,0-1.04-.37-1.93-1.12-2.64-.75-.72-1.72-1.08-2.92-1.08-1.27,0-2.29.38-3.05,1.14s-1.15,1.82-1.16,3.16l-2.71-.28c.19-2.02.88-3.56,2.09-4.62s2.84-1.59,4.88-1.59,3.69.57,4.89,1.71,1.8,2.56,1.8,4.25c0,.86-.18,1.7-.53,2.53s-.94,1.7-1.75,2.62-2.17,2.18-4.06,3.78c-1.58,1.33-2.6,2.23-3.05,2.7-.45.47-.82.95-1.11,1.43h10.53Z"/>
    <path class="cls-6" d="M1130.47,454.13c0-2.54.26-4.58.78-6.13s1.3-2.74,2.33-3.58,2.33-1.26,3.89-1.26c1.15,0,2.16.23,3.03.7.87.46,1.59,1.13,2.15,2.01s1.01,1.94,1.33,3.19.48,2.95.48,5.08c0,2.52-.26,4.55-.78,6.1-.52,1.55-1.29,2.75-2.32,3.59s-2.33,1.27-3.9,1.27c-2.07,0-3.7-.74-4.88-2.23-1.42-1.79-2.12-4.7-2.12-8.73ZM1133.18,454.13c0,3.53.41,5.87,1.24,7.04.83,1.17,1.84,1.75,3.05,1.75s2.23-.59,3.05-1.76,1.24-3.52,1.24-7.03-.41-5.88-1.24-7.05-1.85-1.74-3.08-1.74-2.18.51-2.9,1.54c-.91,1.31-1.36,3.73-1.36,7.25Z"/>
    <path class="cls-6" d="M1147.16,454.13c0-2.54.26-4.58.78-6.13s1.3-2.74,2.33-3.58,2.33-1.26,3.89-1.26c1.15,0,2.16.23,3.03.7.87.46,1.59,1.13,2.15,2.01s1.01,1.94,1.33,3.19.48,2.95.48,5.08c0,2.52-.26,4.55-.78,6.1-.52,1.55-1.29,2.75-2.32,3.59s-2.33,1.27-3.9,1.27c-2.07,0-3.7-.74-4.88-2.23-1.42-1.79-2.12-4.7-2.12-8.73ZM1149.87,454.13c0,3.53.41,5.87,1.24,7.04.83,1.17,1.84,1.75,3.05,1.75s2.23-.59,3.05-1.76,1.24-3.52,1.24-7.03-.41-5.88-1.24-7.05-1.85-1.74-3.08-1.74-2.18.51-2.9,1.54c-.91,1.31-1.36,3.73-1.36,7.25Z"/>
    <path class="cls-6" d="M1167.01,464.72h-2.45v-21.47h2.64v7.66c1.11-1.4,2.53-2.09,4.26-2.09.96,0,1.86.19,2.72.58.85.39,1.56.93,2.11,1.63s.98,1.54,1.3,2.53.47,2.04.47,3.16c0,2.67-.66,4.73-1.98,6.18s-2.9,2.18-4.75,2.18-3.28-.77-4.32-2.3v1.95ZM1166.98,456.83c0,1.87.25,3.21.76,4.04.83,1.36,1.95,2.04,3.37,2.04,1.15,0,2.15-.5,2.99-1.5.84-1,1.26-2.49,1.26-4.47s-.4-3.53-1.21-4.5-1.78-1.45-2.92-1.45-2.15.5-2.99,1.5-1.26,2.45-1.26,4.34Z"/>
    <path class="cls-6" d="M1181.26,470.69v-21.52h2.4v2.02c.57-.79,1.21-1.38,1.92-1.78.71-.4,1.58-.59,2.59-.59,1.33,0,2.5.34,3.52,1.03s1.78,1.65,2.3,2.89c.52,1.25.78,2.61.78,4.09,0,1.59-.29,3.02-.86,4.3-.57,1.27-1.4,2.25-2.49,2.93-1.09.68-2.23,1.02-3.44,1.02-.88,0-1.67-.19-2.37-.56s-1.27-.84-1.72-1.41v7.57h-2.64ZM1183.65,457.03c0,2,.41,3.48,1.22,4.44s1.79,1.44,2.94,1.44,2.18-.5,3.01-1.49,1.25-2.53,1.25-4.61-.41-3.47-1.22-4.45-1.79-1.48-2.92-1.48-2.12.53-2.98,1.58-1.3,2.58-1.3,4.58Z"/>
  </g>
  <text/>
  <text class="cls-4" transform="translate(329.05 583.29)"><tspan x="0" y="0">Guppy</tspan></text>
  <text class="cls-4" transform="translate(329.05 795.33)"><tspan x="0" y="0">Guppy</tspan></text>
  <text class="cls-4" transform="translate(981.89 337.94)"><tspan x="0" y="0">Fastp</tspan></text>
  <g>
    <line class="cls-20" x1="859.5" y1="353.99" x2="859.5" y2="482.47"/>
    <g>
      <line class="cls-12" x1="859.5" y1="353.99" x2="859.5" y2="468.34"/>
      <polygon class="cls-21" points="859.5 482.47 851.37 462.57 859.5 467.29 867.63 462.57 859.5 482.47"/>
    </g>
  </g>
  <g>
    <g>
      <rect class="cls-14" x="673.84" y="485.52" width="378.42" height="140.55"/>
      <text class="cls-4" transform="translate(959.61 610.82)"><tspan x="0" y="0">MultiQC</tspan></text>
    </g>
    <text class="cls-5" transform="translate(738.55 564.22)"><tspan x="0" y="0">Trimmed reads</tspan></text>
  </g>
  <g>
    <line class="cls-20" x1="859.5" y1="811.08" x2="859.5" y2="940.28"/>
    <g>
      <line class="cls-12" x1="859.5" y1="811.08" x2="859.5" y2="926.16"/>
      <polygon class="cls-21" points="859.5 940.28 851.37 920.38 859.5 925.11 867.63 920.38 859.5 940.28"/>
    </g>
  </g>
  <line class="cls-9" x1="859.5" y1="624.96" x2="859.5" y2="671.67"/>
  <g>
    <g>
      <rect class="cls-15" x="672.8" y="671.88" width="378.42" height="140.55" rx="41.62" ry="41.62"/>
      <text class="cls-5" transform="translate(720.06 750.59)"><tspan x="0" y="0">Decontamination</tspan></text>
    </g>
    <text class="cls-4" transform="translate(848.75 793.58)"><tspan x="0" y="0">Minimap2/SAMtools</tspan></text>
  </g>
  <g>
    <path class="cls-6" d="M900.16,850.93c0-1.03.36-1.9,1.09-2.62s1.6-1.08,2.61-1.08,1.9.36,2.63,1.08,1.09,1.6,1.09,2.62-.36,1.9-1.09,2.63c-.73.73-1.6,1.09-2.63,1.09s-1.89-.36-2.61-1.09c-.73-.73-1.09-1.6-1.09-2.63Z"/>
    <path class="cls-6" d="M918.97,861.45v-21.47h2.84v8.82h11.16v-8.82h2.84v21.47h-2.84v-10.12h-11.16v10.12h-2.84Z"/>
    <path class="cls-6" d="M950.4,861.45v-2.29c-1.21,1.76-2.86,2.64-4.94,2.64-.92,0-1.77-.18-2.57-.53s-1.39-.79-1.77-1.33c-.39-.53-.66-1.18-.81-1.96-.11-.52-.16-1.34-.16-2.46v-9.64h2.64v8.63c0,1.38.05,2.3.16,2.78.17.69.52,1.24,1.05,1.63.54.39,1.2.59,1.99.59s1.53-.2,2.23-.61c.69-.4,1.18-.96,1.47-1.65s.43-1.71.43-3.04v-8.33h2.64v15.56h-2.36Z"/>
    <path class="cls-6" d="M956.89,861.45v-15.56h2.36v2.18c.49-.76,1.14-1.37,1.95-1.84.81-.46,1.73-.7,2.77-.7,1.15,0,2.1.24,2.83.72s1.26,1.15,1.56,2.01c1.23-1.82,2.83-2.72,4.8-2.72,1.54,0,2.73.43,3.56,1.28.83.86,1.25,2.17,1.25,3.95v10.68h-2.62v-9.8c0-1.05-.09-1.81-.26-2.28-.17-.46-.48-.84-.93-1.12s-.98-.42-1.58-.42c-1.09,0-2,.36-2.72,1.09s-1.08,1.89-1.08,3.49v9.04h-2.64v-10.11c0-1.17-.21-2.05-.64-2.64s-1.13-.88-2.11-.88c-.74,0-1.43.2-2.06.59s-1.09.96-1.37,1.71-.42,1.84-.42,3.25v8.07h-2.64Z"/>
    <path class="cls-6" d="M992.03,859.53c-.98.83-1.92,1.42-2.82,1.76s-1.87.51-2.91.51c-1.71,0-3.02-.42-3.94-1.25-.92-.84-1.38-1.9-1.38-3.2,0-.76.17-1.46.52-2.09.35-.63.8-1.13,1.36-1.52s1.19-.67,1.9-.86c.52-.14,1.3-.27,2.34-.4,2.13-.25,3.7-.56,4.7-.91,0-.36.01-.59.01-.69,0-1.07-.25-1.83-.75-2.27-.67-.6-1.67-.89-3-.89-1.24,0-2.16.22-2.75.65-.59.44-1.03,1.2-1.31,2.31l-2.58-.35c.23-1.1.62-1.99,1.16-2.67s1.31-1.2,2.33-1.57c1.02-.37,2.19-.55,3.53-.55s2.41.16,3.24.47,1.44.71,1.83,1.18.66,1.07.82,1.79c.09.45.13,1.26.13,2.43v3.52c0,2.45.06,4,.17,4.65s.33,1.27.67,1.87h-2.75c-.27-.55-.45-1.19-.53-1.92ZM991.81,853.64c-.96.39-2.39.72-4.31,1-1.08.16-1.85.33-2.3.53s-.8.48-1.04.86c-.24.38-.37.79-.37,1.25,0,.7.27,1.29.8,1.76s1.31.7,2.34.7,1.92-.22,2.71-.67c.79-.44,1.37-1.05,1.74-1.82.28-.6.42-1.47.42-2.64v-.97Z"/>
    <path class="cls-6" d="M998.57,861.45v-15.56h2.37v2.21c1.14-1.71,2.79-2.56,4.95-2.56.94,0,1.8.17,2.59.51.79.34,1.37.78,1.77,1.33s.66,1.2.82,1.95c.1.49.15,1.34.15,2.56v9.57h-2.64v-9.46c0-1.07-.1-1.88-.31-2.41-.21-.53-.57-.96-1.09-1.27s-1.14-.48-1.84-.48c-1.12,0-2.09.36-2.91,1.07s-1.22,2.07-1.22,4.06v8.5h-2.64Z"/>
    <path class="cls-6" d="M1023.1,862.74l2.56.38c.11.79.41,1.37.89,1.73.65.49,1.55.73,2.68.73,1.22,0,2.16-.24,2.83-.73s1.11-1.17,1.35-2.05c.14-.54.2-1.67.19-3.38-1.15,1.36-2.59,2.04-4.31,2.04-2.14,0-3.79-.77-4.97-2.31s-1.76-3.39-1.76-5.55c0-1.48.27-2.85.81-4.11s1.32-2.22,2.34-2.91,2.22-1.03,3.6-1.03c1.84,0,3.35.74,4.54,2.23v-1.88h2.43v13.45c0,2.42-.25,4.14-.74,5.15-.49,1.01-1.27,1.81-2.34,2.4s-2.39.88-3.95.88c-1.86,0-3.35-.42-4.5-1.25-1.14-.83-1.69-2.09-1.66-3.77ZM1025.28,853.39c0,2.04.41,3.53,1.22,4.47s1.83,1.41,3.05,1.41,2.23-.47,3.05-1.4c.82-.93,1.23-2.39,1.23-4.39s-.42-3.34-1.27-4.31-1.86-1.45-3.05-1.45-2.17.48-2.99,1.43c-.82.95-1.23,2.37-1.23,4.24Z"/>
    <path class="cls-6" d="M1050.92,856.44l2.72.34c-.43,1.59-1.23,2.83-2.39,3.71s-2.65,1.32-4.45,1.32c-2.28,0-4.08-.7-5.41-2.1s-2-3.37-2-5.9.67-4.65,2.02-6.09,3.1-2.17,5.24-2.17,3.78.71,5.1,2.12,1.98,3.41,1.98,5.98c0,.16,0,.39-.01.7h-11.6c.1,1.71.58,3.02,1.45,3.93s1.95,1.36,3.25,1.36c.97,0,1.79-.25,2.48-.76s1.23-1.32,1.63-2.43ZM1042.26,852.18h8.69c-.12-1.31-.45-2.29-1-2.94-.84-1.02-1.93-1.52-3.27-1.52-1.21,0-2.23.41-3.05,1.22s-1.28,1.89-1.37,3.25Z"/>
    <path class="cls-6" d="M1056.95,861.45v-15.56h2.37v2.21c1.14-1.71,2.79-2.56,4.95-2.56.94,0,1.8.17,2.59.51.79.34,1.37.78,1.77,1.33s.66,1.2.82,1.95c.1.49.15,1.34.15,2.56v9.57h-2.64v-9.46c0-1.07-.1-1.88-.31-2.41-.21-.53-.57-.96-1.09-1.27s-1.14-.48-1.84-.48c-1.12,0-2.09.36-2.91,1.07s-1.22,2.07-1.22,4.06v8.5h-2.64Z"/>
    <path class="cls-6" d="M1072.66,853.67c0-2.88.8-5.01,2.4-6.4,1.34-1.15,2.97-1.73,4.89-1.73,2.14,0,3.89.7,5.24,2.1,1.36,1.4,2.04,3.34,2.04,5.81,0,2-.3,3.58-.9,4.72s-1.47,2.04-2.62,2.67-2.4.95-3.76.95c-2.18,0-3.94-.7-5.28-2.09s-2.01-3.41-2.01-6.04ZM1075.37,853.67c0,1.99.43,3.48,1.3,4.48s1.96,1.49,3.28,1.49,2.4-.5,3.27-1.49,1.3-2.51,1.3-4.56c0-1.92-.44-3.38-1.31-4.37s-1.96-1.49-3.26-1.49-2.41.49-3.28,1.48-1.3,2.48-1.3,4.47Z"/>
    <path class="cls-6" d="M1090.32,861.45v-15.56h2.36v2.18c.49-.76,1.14-1.37,1.95-1.84.81-.46,1.73-.7,2.77-.7,1.15,0,2.1.24,2.83.72s1.26,1.15,1.56,2.01c1.23-1.82,2.83-2.72,4.8-2.72,1.54,0,2.73.43,3.56,1.28.83.86,1.25,2.17,1.25,3.95v10.68h-2.62v-9.8c0-1.05-.09-1.81-.26-2.28-.17-.46-.48-.84-.93-1.12s-.98-.42-1.58-.42c-1.09,0-2,.36-2.72,1.09s-1.08,1.89-1.08,3.49v9.04h-2.64v-10.11c0-1.17-.21-2.05-.64-2.64s-1.13-.88-2.11-.88c-.74,0-1.43.2-2.06.59s-1.09.96-1.37,1.71-.42,1.84-.42,3.25v8.07h-2.64Z"/>
    <path class="cls-6" d="M1125.96,856.44l2.72.34c-.43,1.59-1.23,2.83-2.39,3.71s-2.65,1.32-4.45,1.32c-2.28,0-4.08-.7-5.41-2.1s-2-3.37-2-5.9.67-4.65,2.02-6.09,3.1-2.17,5.24-2.17,3.78.71,5.1,2.12,1.98,3.41,1.98,5.98c0,.16,0,.39-.01.7h-11.6c.1,1.71.58,3.02,1.45,3.93s1.95,1.36,3.25,1.36c.97,0,1.79-.25,2.48-.76s1.23-1.32,1.63-2.43ZM1117.31,852.18h8.69c-.12-1.31-.45-2.29-1-2.94-.84-1.02-1.93-1.52-3.27-1.52-1.21,0-2.23.41-3.05,1.22s-1.28,1.89-1.37,3.25Z"/>
    <path class="cls-6" d="M900.16,886.93c0-1.03.36-1.9,1.09-2.62s1.6-1.08,2.61-1.08,1.9.36,2.63,1.08,1.09,1.6,1.09,2.62-.36,1.9-1.09,2.63c-.73.73-1.6,1.09-2.63,1.09s-1.89-.36-2.61-1.09c-.73-.73-1.09-1.6-1.09-2.63Z"/>
    <path class="cls-6" d="M918.01,886.99c0-3.56.96-6.35,2.87-8.37s4.38-3.03,7.41-3.03c1.98,0,3.77.47,5.36,1.42s2.81,2.27,3.64,3.96c.83,1.7,1.25,3.62,1.25,5.76s-.44,4.13-1.32,5.84-2.12,3.02-3.74,3.9-3.35,1.33-5.21,1.33c-2.02,0-3.83-.49-5.42-1.46s-2.8-2.31-3.62-4-1.23-3.48-1.23-5.36ZM920.94,887.04c0,2.59.7,4.63,2.09,6.12s3.14,2.23,5.24,2.23,3.9-.75,5.28-2.26,2.07-3.64,2.07-6.4c0-1.75-.3-3.27-.89-4.58-.59-1.3-1.46-2.31-2.59-3.03-1.14-.72-2.41-1.08-3.83-1.08-2.01,0-3.74.69-5.19,2.07s-2.18,3.69-2.18,6.92Z"/>
    <path class="cls-6" d="M947.63,895.09l.38,2.33c-.74.16-1.41.23-1.99.23-.96,0-1.7-.15-2.23-.45s-.9-.7-1.11-1.19c-.21-.49-.32-1.53-.32-3.11v-8.95h-1.93v-2.05h1.93v-3.85l2.62-1.58v5.43h2.65v2.05h-2.65v9.1c0,.75.05,1.24.14,1.45s.24.39.45.51.51.19.9.19c.29,0,.68-.03,1.16-.1Z"/>
    <path class="cls-6" d="M950.21,897.45v-21.47h2.64v7.71c1.23-1.43,2.78-2.14,4.66-2.14,1.15,0,2.15.23,3,.68.85.45,1.46,1.08,1.82,1.88s.55,1.96.55,3.49v9.86h-2.64v-9.86c0-1.32-.29-2.28-.86-2.88-.57-.6-1.38-.9-2.42-.9-.78,0-1.52.2-2.2.61s-1.18.95-1.47,1.65-.44,1.65-.44,2.87v8.51h-2.64Z"/>
    <path class="cls-6" d="M977.54,892.44l2.72.34c-.43,1.59-1.23,2.83-2.39,3.71s-2.65,1.32-4.45,1.32c-2.28,0-4.08-.7-5.41-2.1s-2-3.37-2-5.9.67-4.65,2.02-6.09,3.1-2.17,5.24-2.17,3.78.71,5.1,2.12,1.98,3.41,1.98,5.98c0,.16,0,.39-.01.7h-11.6c.1,1.71.58,3.02,1.45,3.93s1.95,1.36,3.25,1.36c.97,0,1.79-.25,2.48-.76s1.23-1.32,1.63-2.43ZM968.89,888.18h8.69c-.12-1.31-.45-2.29-1-2.94-.84-1.02-1.93-1.52-3.27-1.52-1.21,0-2.23.41-3.05,1.22s-1.28,1.89-1.37,3.25Z"/>
    <path class="cls-6" d="M983.55,897.45v-15.56h2.37v2.36c.61-1.1,1.16-1.83,1.68-2.18s1.08-.53,1.69-.53c.89,0,1.79.28,2.71.85l-.91,2.45c-.64-.38-1.29-.57-1.93-.57-.58,0-1.09.17-1.55.52-.46.35-.79.83-.98,1.44-.29.94-.44,1.96-.44,3.08v8.14h-2.64Z"/>
    <path class="cls-6" d="M1001.91,897.45v-21.47h2.64v7.71c1.23-1.43,2.78-2.14,4.66-2.14,1.15,0,2.15.23,3,.68.85.45,1.46,1.08,1.82,1.88s.55,1.96.55,3.49v9.86h-2.64v-9.86c0-1.32-.29-2.28-.86-2.88-.57-.6-1.38-.9-2.42-.9-.78,0-1.52.2-2.2.61s-1.18.95-1.47,1.65-.44,1.65-.44,2.87v8.51h-2.64Z"/>
    <path class="cls-6" d="M1017.61,889.67c0-2.88.8-5.01,2.4-6.4,1.34-1.15,2.97-1.73,4.89-1.73,2.14,0,3.89.7,5.24,2.1,1.36,1.4,2.04,3.34,2.04,5.81,0,2-.3,3.58-.9,4.72s-1.47,2.04-2.62,2.67-2.4.95-3.76.95c-2.18,0-3.94-.7-5.28-2.09s-2.01-3.41-2.01-6.04ZM1020.32,889.67c0,1.99.43,3.48,1.3,4.48s1.96,1.49,3.28,1.49,2.4-.5,3.27-1.49,1.3-2.51,1.3-4.56c0-1.92-.44-3.38-1.31-4.37s-1.96-1.49-3.26-1.49-2.41.49-3.28,1.48-1.3,2.48-1.3,4.47Z"/>
    <path class="cls-6" d="M1034.22,892.81l2.61-.41c.15,1.04.55,1.85,1.22,2.4s1.6.83,2.81.83,2.11-.25,2.7-.74c.59-.49.88-1.07.88-1.74,0-.6-.26-1.06-.78-1.41-.36-.23-1.26-.53-2.7-.89-1.93-.49-3.27-.91-4.02-1.27-.75-.36-1.31-.85-1.7-1.48-.39-.63-.58-1.33-.58-2.09,0-.69.16-1.33.48-1.93s.75-1.08,1.3-1.47c.41-.3.97-.56,1.68-.77.71-.21,1.47-.31,2.28-.31,1.22,0,2.29.18,3.22.53s1.6.83,2.04,1.43c.44.6.74,1.4.91,2.41l-2.58.35c-.12-.8-.46-1.43-1.02-1.88s-1.35-.67-2.38-.67c-1.21,0-2.08.2-2.59.6s-.78.87-.78,1.41c0,.34.11.65.32.92.21.28.55.52,1.01.7.26.1,1.04.32,2.33.67,1.87.5,3.17.91,3.9,1.22.74.32,1.32.78,1.74,1.38s.63,1.36.63,2.26-.26,1.71-.77,2.48c-.51.78-1.25,1.38-2.22,1.8-.97.42-2.06.64-3.28.64-2.02,0-3.56-.42-4.62-1.26s-1.74-2.08-2.03-3.74Z"/>
    <path class="cls-6" d="M1056.03,895.09l.38,2.33c-.74.16-1.41.23-1.99.23-.96,0-1.7-.15-2.23-.45s-.9-.7-1.11-1.19c-.21-.49-.32-1.53-.32-3.11v-8.95h-1.93v-2.05h1.93v-3.85l2.62-1.58v5.43h2.65v2.05h-2.65v9.1c0,.75.05,1.24.14,1.45s.24.39.45.51.51.19.9.19c.29,0,.68-.03,1.16-.1Z"/>
  </g>
  <g>
    <rect class="cls-14" x="671.57" y="940.21" width="378.42" height="140.55"/>
    <text class="cls-5" transform="translate(692.45 1018.73) rotate(.04)"><tspan x="0" y="0">Host-depleted reads</tspan></text>
  </g>
  <text class="cls-4" transform="translate(958.57 1067.16)"><tspan x="0" y="0">MultiQC</tspan></text>
  <path class="cls-16" d="M859.6,1225.42"/>
  <line class="cls-10" x1="862.25" y1="1244.73" x2="1231.47" y2="1244.96"/>
  <line class="cls-19" x1="863.35" y1="1245.57" x2="863.68" y2="1082.22"/>
  <line class="cls-19" x1="1232.38" y1="1245.08" x2="1233.89" y2="127.46"/>
  <line class="cls-10" x1="1236.91" y1="127.03" x2="1506.27" y2="126.13"/>
  <g>
    <line class="cls-8" x1="1505.75" y1="195.08" x2="1505.54" y2="124.76"/>
    <polygon class="cls-21" points="1505.82 216.26 1517.92 186.38 1505.75 193.49 1493.53 186.45 1505.82 216.26"/>
  </g>
  <line class="cls-19" x1="1506.7" y1="1245.45" x2="1506.59" y2="1117.47"/>
  <g>
    <rect class="cls-15" x="1320.3" y="212.68" width="378.42" height="140.55" rx="41.62" ry="41.62"/>
    <text class="cls-5" transform="translate(1362.72 292.59)"><tspan x="0" y="0">Viral classification</tspan></text>
  </g>
  <g>
    <path class="cls-6" d="M1537.08,387.21c0-1.03.36-1.9,1.09-2.62s1.6-1.08,2.61-1.08,1.9.36,2.63,1.08,1.09,1.6,1.09,2.62-.36,1.9-1.09,2.63c-.73.73-1.6,1.09-2.63,1.09s-1.89-.36-2.61-1.09c-.73-.73-1.09-1.6-1.09-2.63Z"/>
    <path class="cls-6" d="M1561.93,397.72l-8.32-21.47h3.08l5.58,15.6c.45,1.25.83,2.42,1.13,3.52.33-1.17.72-2.34,1.16-3.52l5.8-15.6h2.9l-8.41,21.47h-2.92Z"/>
    <path class="cls-6" d="M1574.94,379.28v-3.03h2.64v3.03h-2.64ZM1574.94,397.72v-15.56h2.64v15.56h-2.64Z"/>
    <path class="cls-6" d="M1581.56,397.72v-15.56h2.37v2.36c.61-1.1,1.16-1.83,1.68-2.18s1.08-.53,1.69-.53c.89,0,1.79.28,2.71.85l-.91,2.45c-.64-.38-1.29-.57-1.93-.57-.58,0-1.09.17-1.55.52-.46.35-.79.83-.98,1.44-.29.94-.44,1.96-.44,3.08v8.14h-2.64Z"/>
    <path class="cls-6" d="M1601.73,395.81c-.98.83-1.92,1.42-2.82,1.76s-1.87.51-2.91.51c-1.71,0-3.02-.42-3.94-1.25-.92-.84-1.38-1.9-1.38-3.2,0-.76.17-1.46.52-2.09.35-.63.8-1.13,1.36-1.52s1.19-.67,1.9-.86c.52-.14,1.3-.27,2.34-.4,2.13-.25,3.7-.56,4.7-.91,0-.36.01-.59.01-.69,0-1.07-.25-1.83-.75-2.27-.67-.6-1.67-.89-3-.89-1.24,0-2.16.22-2.75.65-.59.44-1.03,1.2-1.31,2.31l-2.58-.35c.23-1.1.62-1.99,1.16-2.67s1.31-1.2,2.33-1.57c1.02-.37,2.19-.55,3.53-.55s2.41.16,3.24.47,1.44.71,1.83,1.18.66,1.07.82,1.79c.09.45.13,1.26.13,2.43v3.52c0,2.45.06,4,.17,4.65s.33,1.27.67,1.87h-2.75c-.27-.55-.45-1.19-.53-1.92ZM1601.51,389.92c-.96.39-2.39.72-4.31,1-1.08.16-1.85.33-2.3.53s-.8.48-1.04.86c-.24.38-.37.79-.37,1.25,0,.7.27,1.29.8,1.76s1.31.7,2.34.7,1.92-.22,2.71-.67c.79-.44,1.37-1.05,1.74-1.82.28-.6.42-1.47.42-2.64v-.97Z"/>
    <path class="cls-6" d="M1608.21,397.72v-21.47h2.64v21.47h-2.64Z"/>
    <path class="cls-6" d="M1623.65,397.72v-21.47h9.52c1.91,0,3.37.19,4.37.58,1,.39,1.79,1.07,2.39,2.04s.89,2.06.89,3.24c0,1.52-.49,2.81-1.48,3.85s-2.51,1.71-4.57,1.99c.75.36,1.32.72,1.71,1.07.83.76,1.62,1.71,2.36,2.86l3.74,5.84h-3.57l-2.84-4.47c-.83-1.29-1.51-2.28-2.05-2.96s-1.02-1.16-1.44-1.44-.86-.46-1.3-.57c-.32-.07-.85-.1-1.58-.1h-3.3v9.54h-2.84ZM1626.49,385.73h6.11c1.3,0,2.31-.13,3.05-.4.73-.27,1.29-.7,1.67-1.29.38-.59.57-1.23.57-1.93,0-1.02-.37-1.85-1.11-2.5s-1.9-.98-3.49-.98h-6.8v7.1Z"/>
    <path class="cls-6" d="M1655.58,392.71l2.72.34c-.43,1.59-1.23,2.83-2.39,3.71s-2.65,1.32-4.45,1.32c-2.28,0-4.08-.7-5.41-2.1s-2-3.37-2-5.9.67-4.65,2.02-6.09,3.1-2.17,5.24-2.17,3.78.71,5.1,2.12,1.98,3.41,1.98,5.98c0,.16,0,.39-.01.7h-11.6c.1,1.71.58,3.02,1.45,3.93s1.95,1.36,3.25,1.36c.97,0,1.79-.25,2.48-.76s1.23-1.32,1.63-2.43ZM1646.92,388.45h8.69c-.12-1.31-.45-2.29-1-2.94-.84-1.02-1.93-1.52-3.27-1.52-1.21,0-2.23.41-3.05,1.22s-1.28,1.89-1.37,3.25Z"/>
    <path class="cls-6" d="M1662.24,397.72v-13.51h-2.33v-2.05h2.33v-1.66c0-1.04.09-1.82.28-2.33.25-.68.7-1.24,1.34-1.66.64-.43,1.54-.64,2.69-.64.74,0,1.56.09,2.46.26l-.4,2.3c-.55-.1-1.06-.15-1.55-.15-.8,0-1.37.17-1.7.51s-.5.98-.5,1.92v1.44h3.03v2.05h-3.03v13.51h-2.62Z"/>
    <path class="cls-6" d="M1669.32,390.83l2.68-.23c.13,1.07.42,1.96.89,2.64.46.69,1.18,1.25,2.16,1.67.98.43,2.08.64,3.3.64,1.08,0,2.04-.16,2.87-.48s1.45-.76,1.85-1.33c.41-.56.61-1.17.61-1.84s-.2-1.26-.59-1.77c-.39-.5-1.04-.92-1.93-1.27-.58-.22-1.85-.57-3.82-1.05-1.97-.47-3.35-.92-4.15-1.34-1.03-.54-1.79-1.2-2.29-2-.5-.79-.75-1.69-.75-2.67,0-1.08.31-2.1.92-3.04.62-.94,1.51-1.66,2.7-2.15s2.5-.73,3.94-.73c1.59,0,3,.26,4.21.77,1.22.51,2.15,1.27,2.81,2.26s1.01,2.12,1.05,3.38l-2.72.21c-.15-1.36-.64-2.38-1.49-3.08s-2.09-1.04-3.74-1.04-2.97.31-3.76.95c-.79.63-1.18,1.39-1.18,2.28,0,.77.28,1.41.83,1.9.55.5,1.98,1.01,4.28,1.53s3.89.98,4.75,1.37c1.25.58,2.17,1.31,2.77,2.19.6.88.89,1.9.89,3.05s-.33,2.22-.98,3.23c-.65,1.01-1.59,1.8-2.82,2.36-1.23.56-2.6.84-4.14.84-1.94,0-3.57-.28-4.89-.85s-2.34-1.42-3.09-2.56-1.14-2.42-1.18-3.86Z"/>
    <path class="cls-6" d="M1700.61,392.71l2.72.34c-.43,1.59-1.23,2.83-2.39,3.71s-2.65,1.32-4.45,1.32c-2.28,0-4.08-.7-5.41-2.1s-2-3.37-2-5.9.67-4.65,2.02-6.09,3.1-2.17,5.24-2.17,3.78.71,5.1,2.12,1.98,3.41,1.98,5.98c0,.16,0,.39-.01.7h-11.6c.1,1.71.58,3.02,1.45,3.93s1.95,1.36,3.25,1.36c.97,0,1.79-.25,2.48-.76s1.23-1.32,1.63-2.43ZM1691.95,388.45h8.69c-.12-1.31-.45-2.29-1-2.94-.84-1.02-1.93-1.52-3.27-1.52-1.21,0-2.23.41-3.05,1.22s-1.28,1.89-1.37,3.25Z"/>
    <path class="cls-6" d="M1716.56,403.69v-7.62c-.41.58-.98,1.05-1.72,1.44s-1.52.57-2.35.57c-1.85,0-3.44-.74-4.77-2.21s-2-3.5-2-6.06c0-1.56.27-2.96.81-4.2s1.33-2.18,2.36-2.82c1.03-.64,2.16-.96,3.39-.96,1.92,0,3.44.81,4.54,2.43v-2.08h2.37v21.52h-2.64ZM1708.43,389.9c0,2,.42,3.5,1.26,4.5.84,1,1.85,1.5,3.02,1.5s2.09-.48,2.9-1.43c.81-.95,1.22-2.4,1.22-4.34,0-2.07-.43-3.63-1.28-4.67s-1.86-1.57-3.01-1.57-2.11.49-2.91,1.46c-.8.97-1.19,2.49-1.19,4.55Z"/>
  </g>
  <g>
    <line class="cls-20" x1="1506.27" y1="352.22" x2="1506.27" y2="487.53"/>
    <g>
      <line class="cls-12" x1="1506.27" y1="352.22" x2="1506.27" y2="473.41"/>
      <polygon class="cls-21" points="1506.27 487.53 1498.14 467.64 1506.27 472.36 1514.4 467.64 1506.27 487.53"/>
    </g>
  </g>
  <text class="cls-4" transform="translate(1587.45 337.94)"><tspan x="0" y="0">MetaMaps</tspan></text>
  <rect class="cls-14" x="1329.07" y="485.52" width="378.42" height="140.55"/>
  <text class="cls-4" transform="translate(1638.67 610.82)"><tspan x="0" y="0">Seqtk</tspan></text>
  <text class="cls-5" transform="translate(1440.47 564.22)"><tspan x="0" y="0">Viral reads</tspan></text>
  <g>
    <rect class="cls-15" x="1321.33" y="671.88" width="378.42" height="140.55" rx="41.62" ry="41.62"/>
    <text class="cls-5" transform="translate(1370.21 733.04)"><tspan x="0" y="0">Reference-based </tspan><tspan x="66.12" y="42">assembly</tspan></text>
  </g>
  <line class="cls-9" x1="1506.27" y1="626.89" x2="1506.27" y2="673.61"/>
  <text class="cls-2" transform="translate(1401.36 880.54)"><tspan x="0" y="0">1.</tspan></text>
  <g>
    <rect class="cls-15" x="1449.17" y="832.59" width="258.32" height="77.97"/>
    <text class="cls-2" transform="translate(1520.79 879.58)"><tspan x="0" y="0">Mapping</tspan></text>
  </g>
  <text class="cls-3" transform="translate(1639.77 903.42)"><tspan x="0" y="0">Medaka</tspan></text>
  <text class="cls-2" transform="translate(1401.36 976.11)"><tspan x="0" y="0">2.</tspan></text>
  <text class="cls-2" transform="translate(1401.36 1070.29)"><tspan x="0" y="0">3.</tspan></text>
  <g>
    <rect class="cls-15" x="1449.2" y="1022.7" width="258.29" height="77.97"/>
    <text class="cls-2" transform="translate(1485.24 1069.69)"><tspan x="0" y="0">Variant calling</tspan></text>
  </g>
  <text class="cls-3" transform="translate(1668.76 1093.95)"><tspan x="0" y="0">ivar</tspan></text>
  <rect class="cls-15" x="1449.66" y="1117.75" width="257.83" height="77.97"/>
  <text class="cls-2" transform="translate(1494.36 1164.74)"><tspan x="0" y="0">Polish indels</tspan></text>
  <text class="cls-3" transform="translate(1616.42 1188.18)"><tspan x="0" y="0">homopolish</tspan></text>
  <g>
    <line class="cls-17" x1="1872.37" y1="597.37" x2="2043.15" y2="597.56"/>
    <polygon class="cls-21" points="2057.27 597.57 2037.36 605.68 2042.09 597.55 2037.38 589.42 2057.27 597.57"/>
  </g>
  <line class="cls-10" x1="1505.09" y1="1245.11" x2="1874.5" y2="1245.11"/>
  <line class="cls-19" x1="1873.49" y1="1246.49" x2="1872.37" y2="597.37"/>
  <rect class="cls-14" x="2058.22" y="529.2" width="378.42" height="140.55"/>
  <text class="cls-5" transform="translate(2150.45 607.9)"><tspan x="0" y="0">Final report</tspan></text>
  <g>
    <rect class="cls-9" x="2057.5" y="770.77" width="175.62" height="36.9"/>
    <text class="cls-7" transform="translate(2091.18 794.55) scale(1.06 1)"><tspan x="0" y="0">Read count</tspan></text>
  </g>
  <g>
    <rect class="cls-9" x="2057.5" y="724.33" width="175.62" height="36.9"/>
    <text class="cls-7" transform="translate(2090.23 748.11) scale(1.06 1)"><tspan x="0" y="0">Vertical cov.</tspan></text>
  </g>
  <g>
    <rect class="cls-9" x="2261.02" y="724.33" width="175.62" height="36.9"/>
    <text class="cls-7" transform="translate(2281.38 748.11) scale(1.06 1)"><tspan x="0" y="0">Horizontal cov.</tspan></text>
  </g>
  <g>
    <rect class="cls-9" x="2261.02" y="770.77" width="175.62" height="36.9"/>
    <text class="cls-7" transform="translate(2287.06 794.55) scale(1.06 1)"><tspan x="0" y="0">Read identity</tspan></text>
  </g>
  <g>
    <rect class="cls-9" x="2057.5" y="677.89" width="175.62" height="36.9"/>
    <text class="cls-7" transform="translate(2109.43 701.67) scale(1.06 1)"><tspan x="0" y="0">Sample</tspan></text>
  </g>
  <g>
    <rect class="cls-9" x="2261.02" y="677.89" width="175.62" height="36.9"/>
    <text class="cls-7" transform="translate(2295.5 701.67) scale(1.06 1)"><tspan x="0" y="0">Virus name</tspan></text>
  </g>
  <g>
    <rect class="cls-9" x="2261.02" y="817.21" width="175.62" height="36.9"/>
    <text class="cls-7" transform="translate(2291.18 840.99) scale(1.06 1)"><tspan x="0" y="0">Base quality</tspan></text>
  </g>
  <g>
    <rect class="cls-9" x="2057.5" y="817.21" width="175.62" height="36.9"/>
    <text class="cls-7" transform="translate(2088.24 840.99) scale(1.06 1)"><tspan x="0" y="0">Read length</tspan></text>
  </g>
  <text class="cls-2" transform="translate(1401.36 1166.18)"><tspan x="0" y="0">4.</tspan></text>
  <g>
    <rect class="cls-15" x="1449.17" y="927.65" width="258.32" height="77.97"/>
    <text class="cls-2" transform="translate(1457.41 975.86)"><tspan x="0" y="0">Sequencing depth</tspan></text>
  </g>
  <text class="cls-3" transform="translate(1523.89 997.82)"><tspan x="0" y="0">bamread-count/SAMtools</tspan></text>
  <text class="cls-5" transform="translate(1589.61 1230.41)"><tspan x="0" y="0">viral consensus</tspan></text>
</svg>